<svg width="23" height="22" viewBox="0 0 23 22" fill="none" xmlns="http://www.w3.org/2000/svg">
<path d="M7.22487 20.625C15.9045 20.625 20.6526 13.7459 20.6526 7.79073C20.6526 7.59823 20.6526 7.40298 20.6439 7.21048C21.5683 6.57039 22.3661 5.77794 23 4.87023C22.1365 5.2344 21.2215 5.47441 20.2846 5.58248C21.2715 5.01823 22.0106 4.13043 22.3646 3.0841C21.4374 3.60952 20.4226 3.97837 19.3646 4.17448C18.6533 3.44988 17.712 2.96986 16.6866 2.80877C15.6612 2.64767 14.6089 2.81449 13.6927 3.28339C12.7764 3.75229 12.0474 4.49709 11.6185 5.40243C11.1896 6.30778 11.0848 7.32313 11.3203 8.29123C9.444 8.20123 7.60842 7.73499 5.93262 6.92275C4.25682 6.1105 2.77823 4.97039 1.59275 3.57635C0.990926 4.57059 0.807262 5.74665 1.07905 6.86572C1.35085 7.98478 2.05772 8.96296 3.05612 9.6016C2.30796 9.57729 1.57625 9.38512 0.92 9.0406V9.10248C0.92129 10.144 1.2985 11.1532 1.98788 11.9594C2.67726 12.7656 3.63651 13.3194 4.7035 13.5272C4.2985 13.6339 3.88014 13.6871 3.46006 13.6854C3.16391 13.6862 2.86836 13.66 2.57744 13.607C2.87901 14.5036 3.46621 15.2875 4.25679 15.8489C5.04738 16.4103 6.00176 16.7211 6.98625 16.7379C5.3138 17.9943 3.24789 18.6758 1.12125 18.6725C0.746524 18.674 0.372058 18.6533 0 18.6106C2.15843 19.9268 4.66512 20.6257 7.22487 20.625Z" fill="#00AA6E"/>
</svg>
