<svg width="24" height="24" viewBox="0 0 24 24" fill="none" xmlns="http://www.w3.org/2000/svg">
<g clip-path="url(#clip0_1_262)">
<path d="M12.0667 7.33325C9.46666 7.33325 7.39999 9.39992 7.39999 11.9999C7.39999 14.5999 9.46666 16.6666 12.0667 16.6666C14.6667 16.6666 16.7333 14.5999 16.7333 11.9999C16.7333 9.39992 14.6667 7.33325 12.0667 7.33325ZM12.0667 15.3333C10.2 15.3333 8.73333 13.8666 8.73333 11.9999C8.73333 10.1333 10.2 8.66659 12.0667 8.66659C13.9333 8.66659 15.4 10.1333 15.4 11.9999C15.4 13.8666 13.9333 15.3333 12.0667 15.3333Z" fill="#9FDAC7"/>
<path d="M21.8667 9.79992L20 9.19992L19.6 8.19992L20.5333 6.46659C20.7333 6.06659 20.6667 5.53325 20.3333 5.19992L18.7333 3.59992C18.4 3.26659 17.8667 3.19992 17.4667 3.39992L15.7333 4.33325L14.7333 3.93325L14.1333 2.06659C14 1.66659 13.6 1.33325 13.1333 1.33325H10.8667C10.4 1.33325 10 1.66659 9.93333 2.13325L9.33333 3.99992C8.93333 4.06659 8.59999 4.19992 8.26666 4.39992L6.53333 3.46659C6.13333 3.26659 5.6 3.33325 5.26666 3.66659L3.66666 5.26659C3.33333 5.59992 3.26666 6.13325 3.46666 6.53325L4.33333 8.19992C4.2 8.53325 4.06666 8.93325 3.93333 9.26659L2.06666 9.86659C1.66666 9.99992 1.33333 10.3999 1.33333 10.8666V13.1333C1.33333 13.5999 1.66666 13.9999 2.13333 14.1333L3.99999 14.7333L4.39999 15.7333L3.46666 17.4666C3.26666 17.8666 3.33333 18.3999 3.66666 18.7333L5.26666 20.3333C5.6 20.6666 6.13333 20.7333 6.53333 20.5333L8.26666 19.5999L9.26666 19.9999L9.86666 21.9333C10 22.3333 10.4 22.6666 10.8667 22.6666H13.1333C13.6 22.6666 14 22.3333 14.1333 21.9333L14.7333 19.9999L15.7333 19.5999L17.4667 20.5333C17.8667 20.7333 18.4 20.6666 18.7333 20.3333L20.3333 18.7333C20.6667 18.3999 20.7333 17.8666 20.5333 17.4666L19.6 15.7333L20 14.7333L21.9333 14.1333C22.3333 13.9999 22.6667 13.5999 22.6667 13.1333V10.8666C22.6667 10.3999 22.3333 9.93325 21.8667 9.79992ZM21.3333 12.9333L18.9333 13.6666L18.8667 13.9999L18.2667 15.3999L18.0667 15.7333L19.2667 17.9333L17.9333 19.2666L15.7333 18.0666L15.4 18.2666C14.9333 18.5333 14.4667 18.7333 14 18.8666L13.6667 18.9333L12.9333 21.3333H11.0667L10.3333 18.9333L10 18.8666L8.59999 18.2666L8.26666 18.0666L6.06666 19.2666L4.73333 17.9333L5.93333 15.7333L5.73333 15.3999C5.46666 14.9333 5.26666 14.4666 5.13333 13.9999L5.06666 13.6666L2.66666 12.9333V11.0666L4.93333 10.3999L5.06666 10.0666C5.2 9.53325 5.39999 9.06659 5.66666 8.59992L5.86666 8.26659L4.73333 6.06659L6.06666 4.73325L8.2 5.93325L8.53333 5.73325C9 5.46659 9.46666 5.26659 10 5.13325L10.3333 4.99992L11.0667 2.66659H12.9333L13.6667 4.99992L14 5.13325C14.4667 5.26659 14.9333 5.46659 15.4 5.73325L15.7333 5.93325L17.9333 4.73325L19.2667 6.06659L18.0667 8.26659L18.2667 8.59992C18.5333 9.06659 18.7333 9.53325 18.8667 9.99992L18.9333 10.3333L21.3333 11.0666V12.9333Z" fill="#9FDAC7"/>
</g>
<defs>
<clipPath id="clip0_1_262">
<rect width="24" height="24" fill="white"/>
</clipPath>
</defs>
</svg>
